<svg xmlns="http://www.w3.org/2000/svg" version="1.1" xmlns:xlink="http://www.w3.org/1999/xlink" xmlns:svgjs="http://svgjs.dev/svgjs" width="1500" height="1200" viewBox="0 0 1500 1230"><g transform="matrix(1,0,0,1,-0.0686115241612697,0.49797570850194006)"><svg viewBox="0 0 301 247" data-background-color="#ffffff" preserveAspectRatio="xMidYMid meet" height="1230" width="1500" xmlns="http://www.w3.org/2000/svg" xmlns:xlink="http://www.w3.org/1999/xlink"><g id="tight-bounds" transform="matrix(1,0,0,1,0.013768045848365773,-0.09999999999999432)"><svg viewBox="0 0 300.97246390830327 247.2" height="247.2" width="300.97246390830327"><g><svg viewBox="0 0 395.52 324.85544601112804" height="247.2" width="300.97246390830327"><g transform="matrix(1,0,0,1,0,241.43250227021048)"><svg viewBox="0 0 395.52 83.42294374091757" height="83.42294374091757" width="395.52"><g id="textblocktransform"><svg viewBox="0 0 395.52 83.42294374091757" height="83.42294374091757" width="395.52" id="textblock"><g><svg viewBox="0 0 395.52 83.42294374091757" height="83.42294374091757" width="395.52"><g transform="matrix(1,0,0,1,0,0)"><svg width="395.52" viewBox="2.35 -37.3 240.83 50.8" height="83.42294374091757" data-palette-color="#9800ff"><path d="M11.95-1.7L18.3-3.15 20.25-5.85 20.15-10.3 17.9-12.7 5.2-19.75 2.9-25.15 3.35-29.85 6.2-33.7 13.15-36 20.8-35.4 23.15-35.6 22.75-33.05 22.8-26.5 20.95-26.1 19.65-32.7 13.75-33.5 8.7-31.6 7.55-28.3 8.65-24.05 21.25-17.15 24.95-13.3 25.15-5.4 21.3-0.6 13.95 1 4.7-0.1 2.35-0.45 2.75-2.4 3.2-8.95 5.05-9.35 5.85-2.75 11.95-1.7ZM43.1-1.2L40.3 0.5 36.9 1 33.35-0.2 31.75-4.2 32-13.5 31.75-21.9 28.3-22.4 28-24.15 31.95-25.2 33.75-30.25 36.3-30.25 36.15-24.65 42.2-24.45 41.9-22.25 36.65-21.9 36.45-19.6 36.65-4.45 37.65-1.45 42.35-2.7 43.1-1.2ZM63.8-19.8L63.85-9.1 64.2-2.05 67.65-1.55 67.3 0.1 60.34 0.7 59.7-2.25 59.45-2.25 54.5 0.7 49.3 0.7 45.8-1.85 44.75-6.75 46.95-10.65 52.95-13.25 59.55-13.5 59.35-19.75 58.4-22.85 54.35-24 49.5-22.85 49.35-17.55 47.4-17.15 46.1-24 51.85-25.7 58.3-26 62.2-24.1 63.8-19.8ZM49.6-6.85L50.95-2.8 54.7-1.85 59.75-4.75 59.55-11.5 55.2-11.5 51.35-9.95 49.6-6.85ZM76.39 13L73.89 13.5 72.34 11.25 70.84 7.15 72.74 6.45 75.54 10.6 78.09 8.15 81.59 0.15 73.84-19.7 72.09-22.75 68.54-23.5 68.79-25.25 74.89-25 80.84-25.25 80.74-23.5 77.84-22.65 78.59-19.55 81.29-12.65 84.04-4.6 84.19-4.6 86.69-12.45 89.24-19.6 89.74-22.8 86.94-23.5 87.19-25.25 92.54-25 96.79-25.25 96.69-23.5 93.64-22.6 91.89-18.85 84.44 1.05 80.14 9.3 76.39 13ZM126.39-5.15L127.54-3.5 122.54-0.1 113.04 1 103.59-3.5 100.04-9.95 99.04-16.4 99.04-21.5 101.74-28.05 108.19-34.15 115.04-36.05 120.64-36.05 128.29-34.1 127.39-31.55 126.69-25.5 124.79-25.35 123.64-32.35 119.94-33.3 113.94-33.3 106.44-26.9 104.79-18.7 105.49-11.1 108.39-5.75 113.59-1.65 121.74-2.35 126.39-5.15ZM149.54-19.8L149.59-9.1 149.94-2.05 153.39-1.55 153.04 0.1 146.09 0.7 145.44-2.25 145.19-2.25 140.24 0.7 135.04 0.7 131.54-1.85 130.49-6.75 132.69-10.65 138.69-13.25 145.29-13.5 145.09-19.75 144.14-22.85 140.09-24 135.24-22.85 135.09-17.55 133.14-17.15 131.84-24 137.59-25.7 144.04-26 147.94-24.1 149.54-19.8ZM135.34-6.85L136.69-2.8 140.44-1.85 145.49-4.75 145.29-11.5 140.94-11.5 137.09-9.95 135.34-6.85ZM169.79-1.2L166.99 0.5 163.59 1 160.04-0.2 158.44-4.2 158.69-13.5 158.44-21.9 154.99-22.4 154.69-24.15 158.64-25.2 160.44-30.25 162.99-30.25 162.84-24.65 168.89-24.45 168.59-22.25 163.34-21.9 163.14-19.6 163.34-4.45 164.34-1.45 169.04-2.7 169.79-1.2ZM180.38-24.95L180.03-18.15 179.73-13.15 179.88-8.3 180.08-2.5 183.73-1.5 183.48 0.25 177.58 0 171.48 0.25 171.58-1.5 174.88-2.5 175.13-7.75 175.03-17.35 174.78-22.55 171.23-22.4 170.98-24.15 177.88-25.5 180.38-24.95ZM173.33-34.4L174.48-36.25 176.73-37.3 179.03-36.55 180.08-33.95 178.73-31.85 176.48-30.95 174.38-32.25 173.33-34.4ZM188.18-4.55L186.53-9.5 186.53-16.05 189.48-22 195.13-25.75 201.98-26 208.23-22.25 211.48-16.25 210.88-7.1 207.18-1.2 199.43 1 192.93-0.25 188.18-4.55ZM195.18-23.2L192.03-17.75 191.78-12.15 192.38-6.35 194.53-2.6 199.83-1.3 204.73-3.45 206.18-11.25 205.68-17.75 203.83-21.9 200.18-23.75 195.18-23.2ZM239.23-8.3L239.63-2.45 243.18-1.5 242.93 0.25 237.03 0 230.93 0.25 231.03-1.5 234.33-2.5 234.68-7.75 234.48-18.65 233.13-21.95 228.88-22.7 223.43-19.9 223.33-18.15 223.03-13.15 223.13-8.3 223.38-2.5 227.03-1.5 226.78 0.25 220.88 0 214.78 0.25 214.88-1.5 218.18-2.5 218.53-7.75 218.08-22.55 214.53-22.4 214.28-24.15 221.18-25.5 223.68-24.95 223.53-22.4 228.88-25.65 233.98-26 238.58-22.85 239.33-18.85 239.23-8.3Z" opacity="1" transform="matrix(1,0,0,1,0,0)" fill="#9800ff" class="wordmark-text-0" data-fill-palette-color="primary" id="text-0"></path></svg></g></svg></g></svg></g></svg></g><g transform="matrix(1,0,0,1,96.73790373147561,0)"><svg viewBox="0 0 202.04419253704876 202.04419253704876" height="202.04419253704876" width="202.04419253704876"><g><svg></svg></g><g id="icon-0"><svg viewBox="0 0 202.04419253704876 202.04419253704876" height="202.04419253704876" width="202.04419253704876"><g><path d="M0 101.022c0-55.793 45.229-101.022 101.022-101.022 55.793 0 101.022 45.229 101.022 101.022 0 55.793-45.229 101.022-101.022 101.022-55.793 0-101.022-45.229-101.022-101.022zM101.022 194.521c51.638 0 93.499-41.861 93.499-93.499 0-51.638-41.861-93.499-93.499-93.499-51.638 0-93.499 41.861-93.499 93.499 0 51.638 41.861 93.499 93.499 93.499z" data-fill-palette-color="accent" fill="#8d26ed" stroke="transparent"></path></g><g transform="matrix(1,0,0,1,63.84352388105786,43.550323071055885)"><svg viewBox="0 0 74.35714477493303 114.94354639493699" height="114.94354639493699" width="74.35714477493303"><g><svg xmlns:dc="http://purl.org/dc/elements/1.1/" xmlns:cc="http://creativecommons.org/ns#" xmlns:rdf="http://www.w3.org/1999/02/22-rdf-syntax-ns#" xmlns:svg="http://www.w3.org/2000/svg" xmlns="http://www.w3.org/2000/svg" xmlns:sodipodi="http://sodipodi.sourceforge.net/DTD/sodipodi-0.dtd" xmlns:inkscape="http://www.inkscape.org/namespaces/inkscape" viewBox="20.872871109907326 5 58.22112889009267 90" version="1.1" x="0" y="0" height="114.94354639493699" width="74.35714477493303" class="icon-dxe-0" data-fill-palette-color="accent" id="dxe-0"><path d="M49.969 5C30.719 5 20.705 20 20.875 35 21.111 56.833 42.701 65 49.969 95 57.248 65 79.094 56.358 79.094 35 79.094 20 67.788 5 49.969 5M50 12.5L67 29.5H33zM37.969 31.625H62V55.688H37.969zM42.062 35.719V42.469H48.783V35.719zM51.189 35.719V42.469H57.938V35.719zM42.062 44.844V51.594H48.783V44.844zM51.189 44.844V51.594H57.938V44.844z" fill="#8d26ed" data-fill-palette-color="accent"></path></svg></g></svg></g></svg></g></svg></g><g></g></svg></g><defs></defs></svg><rect width="300.97246390830327" height="247.2" fill="none" stroke="none" visibility="hidden"></rect></g></svg></g></svg>